<svg xmlns="http://www.w3.org/2000/svg" viewBox="0 0 2751 2813.6">
    <path fill="#03A9F4" fill-rule="evenodd" d="M187.6,2438.4C84,2438.4,0,2354.4,0,2250.8c0-34.1,9.1-66.1,25.1-93.6L1213,94c32.2-56.1,92.9-94,162.4-94s130.2,37.9,162.5,94l1188,2063.2c16,27.5,25.1,59.5,25.1,93.6c0,103.6-84,187.6-187.6,187.6H187.6z"/>
    <path fill="#039BE5" fill-rule="evenodd" d="M1212.9,94L25.1,2157.1c-16,27.5-25.1,59.5-25.1,93.6c0,103.6,84,187.6,187.6,187.6h1188V0C1305.9,0,1245.2,37.9,1212.9,94z"/>
    <path fill="#F1F1F1" fill-rule="evenodd" d="M1375.4,875.3L2438.2,2751l-62.6,62.6l-1000.4-375.1l-1000.2,375l-62.6-62.6L1375.4,875.3z"/>
    <path fill="#E1E1E1" fill-rule="evenodd" d="M1375.4,875.3L2438.2,2751l-62.6,62.6l-1000.4-375.1"/>
</svg>
